<?xml version="1.0" encoding="UTF-8" standalone="no"?>
<!-- Created with Inkscape (http://www.inkscape.org/) -->

<svg
   version="1.1"
   id="svg1"
   width="800"
   height="800"
   viewBox="0 0 800 800.00004"
   sodipodi:docname="onlylogo_mt_orange.svg"
   inkscape:version="1.4.2 (f4327f4, 2025-05-13)"
   inkscape:export-filename="onlylogo_mt_orange.png"
   inkscape:export-xdpi="60"
   inkscape:export-ydpi="60"
   xmlns:inkscape="http://www.inkscape.org/namespaces/inkscape"
   xmlns:sodipodi="http://sodipodi.sourceforge.net/DTD/sodipodi-0.dtd"
   xmlns="http://www.w3.org/2000/svg"
   xmlns:svg="http://www.w3.org/2000/svg">
  <defs
     id="defs1">
    <inkscape:perspective
       sodipodi:type="inkscape:persp3d"
       inkscape:vp_x="0 : 288.00002 : 1"
       inkscape:vp_y="0 : 1000 : 0"
       inkscape:vp_z="1536 : 288.00002 : 1"
       inkscape:persp3d-origin="768 : 117.33334 : 1"
       id="perspective57" />
    <linearGradient
       id="swatch1"
       inkscape:swatch="solid">
      <stop
         style="stop-color:#ff6600;stop-opacity:1;"
         offset="0"
         id="stop1" />
    </linearGradient>
  </defs>
  <sodipodi:namedview
     id="namedview1"
     pagecolor="#ffffff"
     bordercolor="#000000"
     borderopacity="0.25"
     inkscape:showpageshadow="2"
     inkscape:pageopacity="0.0"
     inkscape:pagecheckerboard="0"
     inkscape:deskcolor="#d1d1d1"
     inkscape:zoom="0.34"
     inkscape:cx="504.41176"
     inkscape:cy="460.29412"
     inkscape:window-width="1278"
     inkscape:window-height="767"
     inkscape:window-x="1383"
     inkscape:window-y="159"
     inkscape:window-maximized="0"
     inkscape:current-layer="g1"
     showgrid="false" />
  <g
     inkscape:groupmode="layer"
     inkscape:label="Image"
     id="g1">
    <g
       id="g2"
       transform="translate(8.8235294,-11.764706)">
      <g
         id="g779"
         transform="translate(-40.54204,-26.760563)">
        <path
           style="fill:#000000;fill-opacity:1;stroke:#ff6600;stroke-width:2;stroke-linecap:butt;stroke-linejoin:round;stroke-miterlimit:0;stroke-dasharray:none;stroke-dashoffset:0;stroke-opacity:1;paint-order:normal"
           d="m 419.34156,598.35391 h 26.74897 L 432.92181,618.107 Z"
           id="path776" />
        <path
           style="fill:#ff6600;fill-opacity:1;stroke:#ff6600;stroke-width:2.04052;stroke-linecap:butt;stroke-linejoin:round;stroke-miterlimit:0;stroke-dasharray:none;stroke-dashoffset:0;stroke-opacity:1;paint-order:normal"
           d="m 407.14242,579.44193 h 52.86073 l -8.59524,11.07499 h -36.95954 z"
           id="path778" />
        <rect
           style="fill:#000000;fill-rule:evenodd;stroke:#ff6600;stroke-width:2.0577;stroke-linejoin:round;stroke-dasharray:none;stroke-opacity:1"
           id="rect779"
           width="17.424"
           height="27.398991"
           x="424.7475"
           y="439.14142" />
        <rect
           style="fill:#000000;fill-rule:evenodd;stroke:#ff6600;stroke-width:1.5653;stroke-linecap:round;stroke-linejoin:round;stroke-dasharray:none;stroke-opacity:1"
           id="rect779-1"
           width="16.371222"
           height="69.546219"
           x="425.15524"
           y="471.35522" />
        <rect
           style="fill:#ff6600;fill-opacity:1;fill-rule:evenodd;stroke:#ff6600;stroke-width:1;stroke-linejoin:round;stroke-dasharray:none;stroke-opacity:1"
           id="rect779-1-4-5"
           width="4.1044188"
           height="52.434753"
           x="487.27979"
           y="-457.18488"
           transform="matrix(0.00326336,0.99999468,-0.99999996,2.9948784e-4,0,0)" />
        <rect
           style="fill:#ff6600;fill-opacity:1;fill-rule:evenodd;stroke:#ff6600;stroke-width:1;stroke-linejoin:round;stroke-dasharray:none;stroke-opacity:1"
           id="rect779-1-4-5-6"
           width="4.1044188"
           height="52.434753"
           x="503.43951"
           y="-456.89188"
           transform="matrix(0.00326336,0.99999468,-0.99999996,2.9948784e-4,0,0)" />
        <rect
           style="fill:#ff6600;fill-opacity:1;fill-rule:evenodd;stroke:#b0b8c4;stroke-width:1.20001;stroke-linejoin:round;stroke-dasharray:none;stroke-opacity:1"
           id="rect779-1-4-5-6-4"
           width="3.9008801"
           height="80.023354"
           x="631.09851"
           y="-469.91846"
           transform="matrix(0.00524024,0.99998627,-0.99999998,1.8650434e-4,0,0)" />
        <rect
           style="fill:#b0b8c4;fill-opacity:1;fill-rule:evenodd;stroke:#ff6600;stroke-width:1.50001;stroke-linejoin:round;stroke-dasharray:none;stroke-opacity:1"
           id="rect779-1-4-5-6-4-8"
           width="6.9516215"
           height="117.07624"
           x="644.0863"
           y="-491.07419"
           transform="matrix(0.00430209,0.99999075,-0.99999997,2.2717595e-4,0,0)" />
        <rect
           style="fill:#b0b8c4;fill-opacity:1;fill-rule:evenodd;stroke:#ff6600;stroke-width:1.50001;stroke-linejoin:round;stroke-dasharray:none;stroke-opacity:1"
           id="rect779-1-4-5-6-4-8-9"
           width="7.6062193"
           height="161.52193"
           x="661.22351"
           y="-512.65662"
           transform="matrix(0.0054245,0.99998529,-0.99999998,1.8016896e-4,0,0)" />
        <rect
           style="fill:#ff6600;fill-opacity:1;fill-rule:evenodd;stroke:#ff6600;stroke-width:1.05001;stroke-linejoin:round;stroke-dasharray:none;stroke-opacity:1"
           id="rect779-1-4-3"
           width="5.4929843"
           height="99.815956"
           x="479.64948"
           y="-478.53366"
           transform="matrix(0.00464182,0.99998923,-0.99999998,2.1054878e-4,0,0)" />
        <rect
           style="fill:#ff6600;fill-opacity:1;fill-rule:evenodd;stroke:#ff6600;stroke-width:1.05001;stroke-linejoin:round;stroke-dasharray:none;stroke-opacity:1"
           id="rect779-1-4-3-8"
           width="5.4929843"
           height="99.815956"
           x="495.83112"
           y="-478.24185"
           transform="matrix(0.00464182,0.99998923,-0.99999998,2.1054878e-4,0,0)" />
        <rect
           style="fill:#ff6600;fill-opacity:1;fill-rule:evenodd;stroke:#ff6600;stroke-width:1.05001;stroke-linejoin:round;stroke-dasharray:none;stroke-opacity:1"
           id="rect779-1-4-3-8-8"
           width="5.4929843"
           height="99.815956"
           x="512.03131"
           y="-478.16666"
           transform="matrix(0.00464182,0.99998923,-0.99999998,2.1054878e-4,0,0)" />
        <rect
           style="fill:#ff6600;fill-opacity:1;fill-rule:evenodd;stroke:#ff6600;stroke-width:0.429035;stroke-linejoin:round;stroke-dasharray:none;stroke-opacity:1"
           id="rect779-1-4-9"
           width="2.9604409"
           height="28.892696"
           x="474.79108"
           y="-446.32388"
           transform="matrix(0.00249303,0.99999689,-0.99999992,3.9202701e-4,0,0)" />
        <rect
           style="fill:#ff6600;fill-opacity:1;fill-rule:evenodd;stroke:#ff6600;stroke-width:0.546305;stroke-linejoin:round;stroke-dasharray:none;stroke-opacity:1"
           id="rect779-1-4-9-4"
           width="2.8436372"
           height="48.770348"
           x="519.3797"
           y="-455.16809"
           transform="matrix(0.00438104,0.9999904,-0.99999998,2.2308131e-4,0,0)" />
        <rect
           style="fill:#ff6600;fill-opacity:1;fill-rule:evenodd;stroke:#ff6600;stroke-width:0.528653;stroke-linejoin:round;stroke-dasharray:none;stroke-opacity:1"
           id="rect779-1-4-9-5"
           width="2.8612182"
           height="45.388863"
           x="533.57819"
           y="-453.89102"
           transform="matrix(0.00405223,0.99999179,-0.99999997,2.4118324e-4,0,0)" />
        <rect
           style="fill:#000000;fill-rule:evenodd;stroke:#ff6600;stroke-width:2;stroke-linecap:round;stroke-linejoin:round;stroke-dasharray:none;stroke-opacity:1"
           id="rect779-4"
           width="65.875984"
           height="28.249893"
           x="399.92661"
           y="543.78528" />
        <rect
           style="fill:#ff6600;fill-opacity:1;fill-rule:evenodd;stroke:#ff6600;stroke-width:1.05001;stroke-linejoin:round;stroke-dasharray:none;stroke-opacity:1"
           id="rect779-1-4-3-8-7"
           width="5.4929843"
           height="99.815956"
           x="526.83154"
           y="-478.49792"
           transform="matrix(0.00464182,0.99998923,-0.99999998,2.1054878e-4,0,0)" />
      </g>
      <g
         id="g780"
         transform="translate(-40.84507,-26.760563)"
         style="fill:#ff6600;fill-opacity:1;stroke:#ff6600;stroke-opacity:0.996078">
        <path
           style="fill:#ff6600;fill-opacity:1;stroke:#ff6600;stroke-width:3;stroke-linecap:square;stroke-linejoin:round;stroke-miterlimit:0;stroke-dasharray:none;stroke-dashoffset:4.5;stroke-opacity:0.996078;paint-order:normal"
           d="m 328.80659,585.18518 -34.5679,-37.03703 0.82304,-251.44033 h 38.68313 l 97.53086,101.23456 100,-100.82304 h 39.50618 v 252.26337 l -35.80247,38.27161 V 359.25926 l -86.41976,86.00823 -0.41152,-11.93416 h -28.80658 v 13.99177 l -90.12346,-88.47737 z"
           id="path762" />
        <path
           style="fill:#ff6600;fill-opacity:1;stroke:#ff6600;stroke-width:2;stroke-linecap:round;stroke-linejoin:round;stroke-miterlimit:0;stroke-dasharray:none;stroke-dashoffset:0;stroke-opacity:0.996078;paint-order:normal"
           d="m 221,204 h 54 l 20,25 H 398.33333 L 426.66667,260.33333 439.33333,260 468,229.33333 572.66667,229 l 18,-24.66667 h 53.66666 L 645,235 609,280.33333 608.33333,668 l 7,0.33333 0.33334,-382 29.33333,-37 v 424 H 600.66667 V 266.66667 H 472 l -29.33333,27.66666 0.66666,26.33334 -22,0.33333 -0.66666,-26.33333 L 394,267 l -128.66667,0.33333 0.66667,407 h -45.66667 l 0.33334,-422 30.66666,40 L 251,668.66667 258.66667,669 258,284.66667 220.66667,235.33333 Z"
           id="path780" />
      </g>
    </g>
  </g>
</svg>
