<?xml version="1.0" encoding="UTF-8" standalone="no"?>
<!-- Created with Inkscape (http://www.inkscape.org/) -->

<svg
   version="1.1"
   id="svg1"
   width="700"
   height="150"
   viewBox="0 0 700 150"
   sodipodi:docname="workmark_logo_mt_orange.svg"
   inkscape:version="1.4.2 (f4327f4, 2025-05-13)"
   xmlns:inkscape="http://www.inkscape.org/namespaces/inkscape"
   xmlns:sodipodi="http://sodipodi.sourceforge.net/DTD/sodipodi-0.dtd"
   xmlns="http://www.w3.org/2000/svg"
   xmlns:svg="http://www.w3.org/2000/svg">
  <defs
     id="defs1" />
  <sodipodi:namedview
     id="namedview1"
     pagecolor="#ffffff"
     bordercolor="#000000"
     borderopacity="0.25"
     inkscape:showpageshadow="2"
     inkscape:pageopacity="0.0"
     inkscape:pagecheckerboard="0"
     inkscape:deskcolor="#d1d1d1"
     inkscape:zoom="0.62"
     inkscape:cx="388.70968"
     inkscape:cy="396.77419"
     inkscape:window-width="1278"
     inkscape:window-height="768"
     inkscape:window-x="1366"
     inkscape:window-y="225"
     inkscape:window-maximized="0"
     inkscape:current-layer="g2" />
  <g
     inkscape:groupmode="layer"
     inkscape:label="Image"
     id="g1">
    <g
       id="g2"
       transform="translate(0,-590.32258)">
      <path
         id="path14"
         style="fill:#ff6600;fill-opacity:1;stroke:#000000;stroke-width:1.06906;stroke-opacity:1"
         d="m 651.43945,606.53516 c -20.18845,0.28488 -22.8158,0.53237 -26.08007,2.45507 -7.48735,4.41019 -8.09047,6.21632 -8.47266,25.37696 -0.2796,14.01705 -0.0158,18.06883 1.41992,21.82812 1.81234,4.74574 5.90124,8.46675 10.99414,10.00196 1.59267,0.48009 12.2951,0.91229 23.7832,0.96289 19.63617,0.0864 21.17235,-0.0512 25.64844,-2.3125 2.61877,-1.32298 5.84802,-4.03922 7.17578,-6.03711 2.27166,-3.41831 2.41407,-4.71761 2.41407,-22.02539 0,-17.30781 -0.14241,-18.60704 -2.41407,-22.02539 -1.32776,-1.9979 -4.57569,-4.7377 -7.21679,-6.08789 -4.62672,-2.36525 -5.62179,-2.44195 -27.25196,-2.13672 z m 1.4668,13.67968 c 12.48416,0 18.27048,0.38767 19.16602,1.28321 0.86723,0.86723 1.2832,5.82 1.2832,15.28711 0,9.46707 -0.41597,14.41988 -1.2832,15.28711 -0.89554,0.89555 -6.68186,1.2832 -19.16602,1.2832 -14.83264,0 -18.17118,-0.28639 -19.56445,-1.67969 -2.45618,-2.4562 -2.45618,-27.32509 0,-29.78125 1.39327,-1.39334 4.73181,-1.67969 19.56445,-1.67969 z" />
      <path
         style="fill:#ff6600;fill-opacity:1;stroke:#000000;stroke-width:1.06906;stroke-opacity:1"
         d="M 523.68721,636.78491 V 606.3168 h 7.42609 7.42615 l 19.56753,18.95278 c 10.76213,10.42404 19.72793,19.32391 19.92387,19.77756 0.19595,0.45361 0.79727,0.82472 1.33633,0.82472 0.55853,0 0.97999,-8.50384 0.97999,-19.77752 V 606.3168 h 7.48336 7.48343 v 30.46811 30.46807 l -7.21612,-0.0317 -7.21612,-0.0317 L 559.76783,646.8018 538.654,626.41404 v 20.41943 20.41941 h -7.48343 -7.48336 z"
         id="path13" />
      <path
         style="fill:#ff6600;fill-opacity:1;stroke:#000000;stroke-width:1.06906;stroke-opacity:1"
         d="m 418.82227,665.38215 c 0.57581,-1.02898 8.67484,-14.61934 17.99792,-30.20082 l 16.95088,-28.33001 7.42988,-0.28005 7.4298,-0.28003 14.96686,25.30109 c 8.23173,13.91559 16.32937,27.63198 17.99486,30.48085 l 3.02814,5.1798 h -8.58322 -8.58322 l -12.61891,-21.35983 c -6.94044,-11.7479 -13.0999,-21.21469 -13.68787,-21.03727 -0.58796,0.17743 -6.74284,9.78934 -13.6775,21.35985 l -12.60835,21.03725 h -8.54315 c -7.82236,0 -8.45471,-0.15782 -7.49612,-1.87083 z"
         id="path12" />
      <path
         style="fill:#ff6600;fill-opacity:1;stroke:#000000;stroke-width:1.06906;stroke-opacity:1"
         d="m 336.06782,666.11579 c -3.89862,-1.14795 -8.86002,-5.60983 -10.22233,-9.19313 -0.55149,-1.45064 -1.00278,-10.84796 -1.00278,-20.88295 0,-20.40452 0.69149,-22.84107 7.67678,-27.05028 3.2801,-1.97651 5.79056,-2.16401 33.21467,-2.4808 l 29.66628,-0.3427 v 7.02428 7.02431 h -26.51256 c -19.19558,0 -26.86671,0.35405 -27.79547,1.28287 -1.78117,1.78112 -1.78117,28.79392 0,30.575 0.92876,0.92882 8.59989,1.28288 27.79547,1.28288 h 26.51256 v 6.94884 6.94887 l -28.06271,-0.0964 c -15.43449,-0.053 -29.50594,-0.52138 -31.26991,-1.04081 z"
         id="path11" />
      <path
         id="path9"
         style="fill:#ff6600;fill-opacity:1;stroke:#000000;stroke-width:1.06906;stroke-opacity:1"
         d="m 225.41992,606.16992 v 30.54102 30.54297 h 7.48438 7.48242 v -10.15625 -10.15625 l 9.88867,-0.0156 9.88867,-0.0137 9.62305,10.24219 9.62109,10.24218 9.86719,-0.33984 9.86914,-0.33789 -9.03711,-9.08789 c -4.97017,-4.99785 -9.0505,-9.39399 -9.0664,-9.76953 -0.0163,-0.37554 1.75833,-1.01782 3.94336,-1.42774 9.2252,-1.73069 13.13281,-7.64469 13.13281,-19.87695 0,-9.27129 -1.98995,-13.96235 -7.33008,-17.2832 -3.77384,-2.3468 -4.85249,-2.43362 -34.63086,-2.76367 z m 14.9668,14.04492 h 20.18164 c 22.79214,0 22.92761,0.0467 22.37891,7.67188 l -0.33204,4.62109 -21.11328,0.29102 -21.11523,0.28906 v -6.43555 z" />
      <path
         style="fill:#ff6600;fill-opacity:1;stroke:#000000;stroke-width:1.06906;stroke-opacity:1"
         d="m 119.58394,666.68539 c 0,-0.31219 7.99771,-14.02283 17.7726,-30.4681 l 17.7728,-29.90049 h 7.23088 7.23074 l 17.75878,29.79708 c 9.76732,16.38839 17.75872,30.09901 17.75872,30.46807 0,0.36905 -3.58501,0.67103 -7.96662,0.67103 h -7.96661 l -3.04501,-4.5435 c -1.6748,-2.49893 -7.52861,-12.1204 -13.00867,-21.38111 -5.48014,-9.26068 -10.33595,-16.83761 -10.79083,-16.83761 -0.45501,0 -6.48537,9.62149 -13.4009,21.3811 l -12.5736,21.38112 h -8.3862 c -4.61231,0 -8.38608,-0.25542 -8.38608,-0.56759 z"
         id="path8" />
      <path
         style="fill:#ff6600;fill-opacity:1;stroke:#000000;stroke-width:1.06906;stroke-opacity:1"
         d="M 14.816409,636.78491 V 606.3168 h 7.241305 7.241305 l 13.335781,15.03559 13.335847,15.03557 3.110592,-3.54325 c 1.710809,-1.94874 7.725352,-8.71408 13.365482,-15.03404 l 10.254755,-11.49083 7.216123,-10e-4 7.216189,-0.002 v 30.46808 30.46811 h -6.948883 -6.948884 l -0.09727,-12.56138 c -0.133288,-17.28752 -0.430294,-24.67893 -1.012612,-25.2019 -0.271758,-0.24413 -5.766174,5.26629 -12.209616,12.24538 -8.152589,8.83039 -12.432536,12.68938 -14.073578,12.68938 -1.642571,0 -5.860459,-3.81111 -13.90202,-12.5614 -6.34909,-6.90876 -11.922576,-12.72177 -12.385493,-12.91775 -0.462985,-0.19601 -0.841717,8.34308 -0.841717,18.97573 v 19.33209 H 21.764893 14.81601 Z"
         id="path7" />
      <path
         style="fill:#ff6600;fill-opacity:1;stroke:#ff6600;stroke-width:1.06906;stroke-opacity:1"
         d="m 512.99665,704.66992 c 0,-2.1207 0.71261,-2.13804 87.66256,-2.13804 86.94987,0 87.66262,0.0173 87.66262,2.13804 0,2.12077 -0.71275,2.13812 -87.66262,2.13812 -86.94995,0 -87.66256,-0.0173 -87.66256,-2.13812 z"
         id="path6" />
      <path
         style="fill:#ff6600;fill-opacity:1;stroke:#ff6600;stroke-width:1.06906;stroke-opacity:1"
         d="m 14.816409,704.66992 c 0,-2.1207 0.712682,-2.13804 87.662631,-2.13804 86.94988,0 87.66263,0.0173 87.66263,2.13804 0,2.12077 -0.71275,2.13812 -87.66263,2.13812 -86.949949,0 -87.662632,-0.0173 -87.662631,-2.13812 z"
         id="path5" />
      <path
         style="fill:#ff6600;fill-opacity:1;stroke:#ff6600;stroke-width:1.06906;stroke-opacity:1"
         d="m 297.04724,704.13545 v -16.57043 h 17.45427 17.45427 l -0.46617,3.17611 -0.46611,3.1761 -13.51372,0.29834 -13.51365,0.29833 -0.33834,2.9399 -0.33826,2.9399 h 11.29607 11.2962 v 3.16979 3.1698 l -10.95787,0.30464 -10.9578,0.30465 v 3.2072 3.20714 l 14.17956,0.2984 14.17962,0.29834 -0.24206,3.1761 -0.24199,3.17604 h -17.41207 -17.41195 z"
         id="path4" />
      <path
         style="fill:#ff6600;fill-opacity:1;stroke:#ff6600;stroke-width:1.06906;stroke-opacity:1"
         d="m 475.3617,720.94494 c -2.74913,-0.35349 -2.90614,-0.69554 -3.2072,-6.98703 l -0.31654,-6.61533 -10.95787,-0.30465 -10.95781,-0.30464 v 6.98622 6.98629 h -3.74168 -3.74168 v -16.57035 -16.57043 h 3.74168 3.74168 v 6.41441 6.41427 h 11.22511 11.22511 v -6.41427 c 0,-6.39076 0.012,-6.41441 3.15485,-6.41441 h 3.15491 l 0.31953,16.67454 c 0.17574,9.17105 0.0791,16.76518 -0.21495,16.87581 -0.29402,0.11069 -1.83539,0.0339 -3.42514,-0.17043 z"
         id="path3" />
      <path
         style="fill:#ff6600;fill-opacity:1;stroke:#ff6600;stroke-width:1.06906;stroke-opacity:1"
         d="m 373.48483,719.63671 -3.2072,-1.60356 -0.3,-13.0633 c -0.41076,-17.89233 -0.95819,-17.40483 19.54301,-17.40483 h 15.50127 v 3.17617 3.17611 l -14.16494,0.29834 -14.165,0.29826 -0.32179,7.46104 c -0.55867,12.95971 -1.33035,12.31652 14.77436,12.31652 h 13.87737 v 3.14774 3.14773 l -14.16494,0.32671 c -10.96371,0.25282 -14.88998,-0.0359 -17.37214,-1.27693 z"
         id="path2" />
      <path
         style="fill:#ff6600;fill-opacity:1;stroke:#ff6600;stroke-width:1.06906;stroke-opacity:1"
         d="m 241.18907,720.90201 -2.9399,-0.33826 v -13.2922 -13.29212 h -7.48336 -7.48343 v -3.20721 -3.2072 h 17.98882 17.98874 l -0.47069,3.2072 c -0.46644,3.17784 -0.53288,3.20721 -7.26722,3.20721 h -6.79653 l -0.29826,13.63039 -0.29827,13.63053 z"
         id="path1" />
    </g>
  </g>
</svg>
